<?xml version="1.0" encoding="UTF-8"?>
<svg version="1.1" xmlns="http://www.w3.org/2000/svg" width="524" height="476">
<path d="M0 0 C1.25562744 0.25305908 1.25562744 0.25305908 2.53662109 0.51123047 C20.10196663 4.08033548 36.82766209 9.20262279 53 17 C54.2674421 17.54955497 55.53796112 18.0921109 56.8125 18.625 C68.31480661 23.58677932 79.05844278 30.18143175 89.37890625 37.23828125 C91.99304905 39.0442613 91.99304905 39.0442613 94.83984375 40.60546875 C95.55269531 41.06566406 96.26554687 41.52585938 97 42 C97 42.66 97 43.32 97 44 C97.66 44 98.32 44 99 44 C99 44.66 99 45.32 99 46 C100.32 46.33 101.64 46.66 103 47 C103 47.66 103 48.32 103 49 C103.598125 49.103125 104.19625 49.20625 104.8125 49.3125 C107.31258286 50.09824033 108.37535082 50.96918853 110 53 C110 53.66 110 54.32 110 55 C110.59329102 55.26876953 111.18658203 55.53753906 111.79785156 55.81445312 C114.00540033 57.00290732 115.46542882 58.20742389 117.234375 59.96875 C117.80800781 60.53980469 118.38164062 61.11085938 118.97265625 61.69921875 C119.55917969 62.29347656 120.14570313 62.88773437 120.75 63.5 C121.35199219 64.09425781 121.95398438 64.68851562 122.57421875 65.30078125 C123.14269531 65.87183594 123.71117187 66.44289063 124.296875 67.03125 C124.81604492 67.55267578 125.33521484 68.07410156 125.87011719 68.61132812 C127 70 127 70 127 72 C127.87398438 72.35578125 127.87398438 72.35578125 128.765625 72.71875 C131.47552837 74.2726806 132.86530802 76.01929431 134.75 78.5 C135.36359375 79.2940625 135.9771875 80.088125 136.609375 80.90625 C138 83 138 83 138 85 C138.66 85 139.32 85 140 85 C144 90.41176471 144 90.41176471 144 93 C144.66 93 145.32 93 146 93 C150.42857143 100.42857143 150.42857143 100.42857143 151 104 C151.66 104 152.32 104 153 104 C153.51949219 105.03898437 154.03898437 106.07796875 154.57421875 107.1484375 C154.90969727 107.81915283 155.24517578 108.48986816 155.59082031 109.1809082 C156.32662651 110.653012 157.06164288 112.12551083 157.79589844 113.59838867 C159.34778078 116.70934435 160.90440655 119.81551705 162.50390625 122.90234375 C173.10077777 143.3984871 179.05467731 168.8717221 179.203125 191.953125 C179.21009399 192.68703964 179.21706299 193.42095428 179.22424316 194.17710876 C179.24154696 196.53479819 179.24796387 198.8922497 179.25 201.25 C179.25100708 202.05579498 179.25201416 202.86158997 179.25305176 203.69180298 C179.24260921 216.04027048 178.62552954 227.897906 176 240 C175.7831958 241.07290283 175.7831958 241.07290283 175.56201172 242.16748047 C172.05285985 259.45675694 166.39942884 275.49571913 158 291 C157.64534668 291.66773438 157.29069336 292.33546875 156.92529297 293.0234375 C152.19140176 301.91625338 146.96399884 310.20761456 140.96875 318.3046875 C139.02896185 320.80337997 139.02896185 320.80337997 138 323 C137.34 323 136.68 323 136 323 C135.75765625 323.54785156 135.5153125 324.09570312 135.265625 324.66015625 C131.37275299 331.85716345 125.43388665 338.02836031 119 343 C117.700625 344.3303125 117.700625 344.3303125 116.375 345.6875 C114.23028482 347.77577531 112.61113736 348.69443132 110 350 C109.67 350.99 109.34 351.98 109 353 C106.99581223 354.78711699 105.00171383 356.43340643 102.875 358.0625 C102.25189941 358.54493164 101.62879883 359.02736328 100.98681641 359.52441406 C81.77903522 374.20961406 60.81852945 386.15936435 38.02636719 394.24804688 C35.71928625 395.10416848 33.45370922 396.04407728 31.1796875 396.984375 C22.07565956 400.64395579 12.54222249 402.80199633 3 405 C2.08943848 405.2175293 1.17887695 405.43505859 0.24072266 405.65917969 C-31.08377357 412.81224127 -69.78746973 412.55749955 -101 405 C-101.93714844 404.78037598 -102.87429687 404.56075195 -103.83984375 404.33447266 C-126.81397361 398.82863048 -148.43877073 390.61781346 -169 379 C-170.61455078 378.12601562 -170.61455078 378.12601562 -172.26171875 377.234375 C-180.79099034 372.53515706 -188.58669936 367.17579647 -196.32714844 361.2734375 C-197.85781104 360.10823958 -199.40096368 358.95949647 -200.9453125 357.8125 C-205.54815829 354.34954392 -205.54815829 354.34954392 -207 353 C-207 352.34 -207 351.68 -207 351 C-207.66 351 -208.32 351 -209 351 C-209 350.34 -209 349.68 -209 349 C-209.54140625 348.7834375 -210.0828125 348.566875 -210.640625 348.34375 C-213.81645344 346.53500003 -216.20728081 344.08276201 -218.75 341.5 C-219.25660156 341.00113281 -219.76320312 340.50226563 -220.28515625 339.98828125 C-224 336.25341139 -224 336.25341139 -224 334 C-225.32 333.34 -226.64 332.68 -228 332 C-228 331.34 -228 330.68 -228 330 C-228.66 330 -229.32 330 -230 330 C-231.2265625 328.63671875 -231.2265625 328.63671875 -232.625 326.6875 C-233.15480469 325.9553125 -233.68460938 325.223125 -234.23046875 324.46875 C-234.81441406 323.6540625 -235.39835937 322.839375 -236 322 C-236.63550781 321.1440625 -237.27101562 320.288125 -237.92578125 319.40625 C-248.46698709 305.16027085 -258.02642505 289.76792969 -264 273 C-264.59554687 271.4221875 -264.59554687 271.4221875 -265.203125 269.8125 C-283.01538425 221.74086057 -281.13584748 168.35401695 -259.77734375 121.73828125 C-255.17863327 111.95629971 -249.74913732 102.8176984 -243.8203125 93.80078125 C-242.04588486 91.18546998 -242.04588486 91.18546998 -241 89 C-240.34 89 -239.68 89 -239 89 C-238.74605469 88.26394531 -238.49210937 87.52789062 -238.23046875 86.76953125 C-236.92593939 83.83330485 -235.49293817 82.03072137 -233.3125 79.6875 C-232.58933594 78.90117187 -231.86617187 78.11484375 -231.12109375 77.3046875 C-230.07115234 76.16386719 -230.07115234 76.16386719 -229 75 C-227.9554754 73.77326103 -226.91371748 72.54415991 -225.875 71.3125 C-222.35221347 67.2747818 -218.59189814 63.48291665 -214.8125 59.6875 C-214.20583496 59.07624268 -213.59916992 58.46498535 -212.97412109 57.83520508 C-205.11175948 50 -205.11175948 50 -202 50 C-202 49.34 -202 48.68 -202 48 C-201.34 48 -200.68 48 -200 48 C-200 47.34 -200 46.68 -200 46 C-198.1015625 44.4921875 -198.1015625 44.4921875 -195.625 42.875 C-194.81289062 42.33617187 -194.00078125 41.79734375 -193.1640625 41.2421875 C-191 40 -191 40 -189 40 C-189 39.34 -189 38.68 -189 38 C-186.56866946 36.36136603 -184.15228465 34.85078666 -181.625 33.375 C-180.57699219 32.74464844 -180.57699219 32.74464844 -179.5078125 32.1015625 C-174.27140828 29 -174.27140828 29 -172 29 C-172 28.34 -172 27.68 -172 27 C-138.6243811 9.6748909 -105.55934982 -0.67419441 -68 -4 C-67.01700928 -4.09498779 -66.03401855 -4.18997559 -65.02124023 -4.2878418 C-43.35465611 -6.3677895 -21.27163736 -4.45501206 0 0 Z " fill="#FDFEFD" transform="translate(305,50)"/>
<path d="M0 0 C20.64537565 6.92106031 35.00846384 28.17932254 44.36962891 46.71142578 C52.34362578 62.96684417 58.43620733 79.19463072 62.3125 96.875 C62.47226318 97.59921143 62.63202637 98.32342285 62.79663086 99.06958008 C68.15146678 125.41158385 66.13368107 153.52469703 58 179 C57.66871094 180.04929687 57.33742188 181.09859375 56.99609375 182.1796875 C56.0371793 185.13540028 55.03546264 188.07029816 54 191 C53.71640625 191.80566406 53.4328125 192.61132812 53.140625 193.44140625 C48.53131496 205.71268342 41.65962544 218.33765754 34 229 C33.34 229 32.68 229 32 229 C31.67 230.32 31.34 231.64 31 233 C30.34 233 29.68 233 29 233 C28.8040625 233.67675781 28.608125 234.35351562 28.40625 235.05078125 C26.46022987 239.1320179 23.61928537 241.95445004 20.5 245.1875 C19.8706958 245.84878906 19.2413916 246.51007813 18.59301758 247.19140625 C16.73665877 249.13546519 14.86961517 251.06869833 13 253 C12.50806152 253.51385254 12.01612305 254.02770508 11.50927734 254.55712891 C6.03419708 260.27138268 0.33750932 265.27332329 -6 270 C-6.77472656 270.63421875 -7.54945313 271.2684375 -8.34765625 271.921875 C-11.32949267 274.2581592 -14.43532058 276.33899692 -17.625 278.375 C-18.2425415 278.76929199 -18.86008301 279.16358398 -19.49633789 279.56982422 C-39.41560617 292.17018274 -60.03672622 300.01184586 -83 305 C-84.134375 305.25136719 -85.26875 305.50273437 -86.4375 305.76171875 C-93.54583186 307.09453097 -100.66255373 307.22847697 -107.875 307.3125 C-108.86290527 307.33030518 -109.85081055 307.34811035 -110.86865234 307.36645508 C-116.70202914 307.3600121 -120.82428669 306.73202694 -126 304 C-126 302.68 -126 301.36 -126 300 C-125.34 300 -124.68 300 -124 300 C-123.773125 299.28457031 -123.54625 298.56914062 -123.3125 297.83203125 C-119.36912596 289.32326286 -108.60579936 281.19456747 -101 276 C-100.34 276 -99.68 276 -99 276 C-98.76410156 275.41734375 -98.52820313 274.8346875 -98.28515625 274.234375 C-96.71219676 271.49962476 -94.94885998 270.15218815 -92.4375 268.25 C-88.02937227 264.84633679 -83.89257282 261.25738905 -79.8125 257.46875 C-78 256 -78 256 -76 256 C-75.34 254.68 -74.68 253.36 -74 252 C-73.34 252 -72.68 252 -72 252 C-71.67 251.01 -71.34 250.02 -71 249 C-68.5625 246.3125 -68.5625 246.3125 -66 244 C-65.34 244 -64.68 244 -64 244 C-63.76023437 243.44183594 -63.52046875 242.88367188 -63.2734375 242.30859375 C-61.72295913 239.49775719 -59.80718126 237.4150509 -57.625 235.0625 C-48.48742284 225.1761916 -40.49120798 213.22361164 -40.83544922 199.14648438 C-41.13184058 195.28020424 -41.86699984 191.53538441 -42.6875 187.75 C-42.86829102 186.9137207 -43.04908203 186.07744141 -43.23535156 185.21582031 C-47.01889136 168.52828278 -56.16629173 151.31120806 -66.69921875 137.82421875 C-68 136 -68 136 -68 134 C-68.66 134 -69.32 134 -70 134 C-71.49952916 132.15283932 -72.92521087 130.24537846 -74.3125 128.3125 C-76.66963688 125.03491918 -78.92313746 122.07621754 -81.79296875 119.23046875 C-84 117 -84 117 -84 115 C-84.99 114.67 -85.98 114.34 -87 114 C-88.33203125 112.64453125 -88.33203125 112.64453125 -89.8125 110.8125 C-93.35505882 106.63545303 -97.13136213 102.74670294 -101 98.875 C-101.87168823 97.99678589 -101.87168823 97.99678589 -102.76098633 97.10083008 C-106.20590725 93.66654909 -109.75135642 90.41863665 -113.47680664 87.29052734 C-115.44171029 85.62576045 -117.28411884 83.9217869 -119 82 C-119 81.34 -119 80.68 -119 80 C-119.99 79.67 -120.98 79.34 -122 79 C-124.296875 76.671875 -124.296875 76.671875 -126.75 73.75 C-127.97976563 72.31914062 -127.97976563 72.31914062 -129.234375 70.859375 C-131 68 -131 68 -130.890625 65.203125 C-130 63 -130 63 -128 62 C-120.38735544 61.34784594 -113.0089672 62.12627787 -105.5 63.3125 C-104.75435791 63.43012695 -104.00871582 63.54775391 -103.24047852 63.66894531 C-96.42507948 64.81448901 -89.7221995 66.40623496 -83 68 C-81.55328612 68.34035775 -80.10650537 68.68043138 -78.65966797 69.02026367 C-74.65988255 69.96056048 -70.66116756 70.90532395 -66.6628418 71.85180664 C-64.20189274 72.43409452 -61.74059981 73.01491317 -59.27929688 73.59570312 C-50.97937694 75.55803214 -42.69387352 77.56561715 -34.42408752 79.65130615 C-29.34377341 80.92737461 -24.24724397 82.09383169 -19.125 83.1875 C-11.26973684 84.86513158 -11.26973684 84.86513158 -9 86 C-7.46331135 86.22467831 -5.92031946 86.40796805 -4.375 86.5625 C-2.91666667 86.70833333 -1.45833333 86.85416667 0 87 C-1.99177742 80.15469601 -4.18593429 73.40832561 -6.5625 66.6875 C-6.86607422 65.82060547 -7.16964844 64.95371094 -7.48242188 64.06054688 C-9.20358358 59.16347321 -9.20358358 59.16347321 -11.1171875 54.33984375 C-12.2866615 51.24022019 -12.9045856 48.1197925 -13.5625 44.875 C-14.25130386 41.49879041 -14.91040029 38.26879914 -16 35 C-16.23496217 30.69130717 -16.18517667 26.37691603 -16.1875 22.0625 C-16.19974609 20.86947266 -16.21199219 19.67644531 -16.22460938 18.44726562 C-16.22654297 17.30064453 -16.22847656 16.15402344 -16.23046875 14.97265625 C-16.23457764 13.92343994 -16.23868652 12.87422363 -16.24291992 11.79321289 C-16.00071908 9.0082683 -15.43513866 7.36867201 -14 5 C-13.34 5 -12.68 5 -12 5 C-11.71125 4.360625 -11.4225 3.72125 -11.125 3.0625 C-8.79774525 -1.20413372 -4.31384096 -0.67896702 0 0 Z " fill="#7EBC8B" transform="translate(403,123)"/>
<path d="M0 0 C3.84415198 2.10355956 6.36131572 4.94397897 8 9 C10.28861138 25.81782606 6.92430753 42.01729944 2 58 C1.74379883 58.85271484 1.48759766 59.70542969 1.22363281 60.58398438 C-1.76706282 70.44350643 -5.40019549 79.76776826 -10 89 C-9.44127197 88.82871582 -8.88254395 88.65743164 -8.30688477 88.48095703 C-5.7264869 87.69211004 -3.14451605 86.90853345 -0.5625 86.125 C0.31599609 85.85558594 1.19449219 85.58617187 2.09960938 85.30859375 C6.92945906 83.84716322 11.73936129 82.55918265 16.67456055 81.50976562 C21.20607502 80.51640056 25.69168734 79.32976099 30.1875 78.1875 C38.97546211 75.97176353 47.77981413 73.86974127 56.62646484 71.90185547 C61.54593004 70.8026666 66.4463186 69.65152284 71.3359375 68.42578125 C110.40111471 58.66022275 110.40111471 58.66022275 120 64 C119.51557019 68.701016 118.4445987 71.30661957 115.4375 74.9375 C114.79683594 75.73027344 114.15617188 76.52304688 113.49609375 77.33984375 C110.88559811 80.12192126 108.11231006 82.54540218 105.22338867 85.0300293 C101.12680133 88.65969475 97.29712138 92.5593968 93.4375 96.4375 C92.62603516 97.24509766 91.81457031 98.05269531 90.97851562 98.88476562 C86.65919782 103.2110557 82.49385564 107.61127546 78.50805664 112.24682617 C76.55228031 114.52049136 74.52593922 116.72635365 72.5 118.9375 C65.68063783 126.50814784 59.75942262 134.60564153 54 143 C53.278125 144.03125 52.55625 145.0625 51.8125 146.125 C49.5991047 149.63590289 47.80846654 153.26959452 46 157 C45.68160156 157.61617187 45.36320312 158.23234375 45.03515625 158.8671875 C36.83504913 174.74048723 29.69057891 192.63639613 33.58984375 210.73828125 C37.55839126 221.91239428 46.79200093 236.1557637 56.0625 243.625 C58.42734791 245.53700469 60.09329418 247.19214309 62 249.5 C64.73464828 252.79871412 67.66980631 255.30750298 71 258 C72.66666667 259.66666667 74.33333333 261.33333333 76 263 C76.763125 263.556875 77.52625 264.11375 78.3125 264.6875 C78.869375 265.120625 79.42625 265.55375 80 266 C80 266.66 80 267.32 80 268 C80.52851563 268.22042969 81.05703125 268.44085938 81.6015625 268.66796875 C84.86762845 270.4818588 87.56634606 272.87596035 90.375 275.3125 C91.48679725 276.26713899 92.59877554 277.22156717 93.7109375 278.17578125 C94.25202148 278.6445166 94.79310547 279.11325195 95.35058594 279.59619141 C96.46932182 280.54834228 97.60354615 281.48253397 98.75097656 282.39990234 C100.20051454 283.55961784 101.60477046 284.77548585 103 286 C103 286.66 103 287.32 103 288 C104.32 288.66 105.64 289.32 107 290 C107 290.66 107 291.32 107 292 C107.5775 292.20625 108.155 292.4125 108.75 292.625 C111.90583178 294.55356387 113.23314155 296.78179353 115 300 C115.25 302.875 115.25 302.875 115 305 C101.42564412 312.98104304 76.24629559 306.33649315 61.87841797 302.79003906 C52.87826916 300.31976921 44.38999002 297.06591824 36 293 C35.38576172 292.70577148 34.77152344 292.41154297 34.13867188 292.10839844 C22.98211453 286.74823428 12.45910362 281.07484455 3 273 C0.78412652 271.72147713 0.78412652 271.72147713 -1 271 C-1 270.34 -1 269.68 -1 269 C-1.6909375 268.78988281 -2.381875 268.57976562 -3.09375 268.36328125 C-6.89932619 266.57813866 -9.48833017 264.07688625 -12.5 261.1875 C-13.33337891 260.40536133 -13.33337891 260.40536133 -14.18359375 259.60742188 C-23.71758526 250.62303694 -23.71758526 250.62303694 -27.125 245.875 C-28.56259935 243.87790253 -29.90542402 242.09105687 -31.6796875 240.3828125 C-33 239 -33 239 -33 237 C-33.66 237 -34.32 237 -35 237 C-36.18579102 235.6015625 -36.18579102 235.6015625 -37.50390625 233.625 C-37.99310547 232.89474609 -38.48230469 232.16449219 -38.98632812 231.41210938 C-39.7665332 230.21811523 -39.7665332 230.21811523 -40.5625 229 C-41.36397461 227.78280273 -41.36397461 227.78280273 -42.18164062 226.54101562 C-49.12760206 215.8772636 -55.74183667 205.04291126 -60 193 C-60.38542969 192.02804687 -60.77085938 191.05609375 -61.16796875 190.0546875 C-78.20670356 145.70155012 -73.81646378 98.07784596 -54.97216797 55.14648438 C-47.46627512 38.57395551 -47.46627512 38.57395551 -43 32 C-42.34 32 -41.68 32 -41 32 C-40.74734375 31.2884375 -40.4946875 30.576875 -40.234375 29.84375 C-36.96811018 22.31893737 -31.5415757 15.86814936 -25 11 C-24.13375 10.1028125 -24.13375 10.1028125 -23.25 9.1875 C-22 8 -22 8 -20 8 C-20 7.34 -20 6.68 -20 6 C-7.36597136 -1.93464228 -7.36597136 -1.93464228 0 0 Z " fill="#7EBC8B" transform="translate(121,123)"/>
<path d="M0 0 C1.25562744 0.25305908 1.25562744 0.25305908 2.53662109 0.51123047 C20.10196663 4.08033548 36.82766209 9.20262279 53 17 C54.2674421 17.54955497 55.53796112 18.0921109 56.8125 18.625 C68.31480661 23.58677932 79.05844278 30.18143175 89.37890625 37.23828125 C91.99304905 39.0442613 91.99304905 39.0442613 94.83984375 40.60546875 C95.55269531 41.06566406 96.26554687 41.52585938 97 42 C97 42.66 97 43.32 97 44 C97.66 44 98.32 44 99 44 C99 44.66 99 45.32 99 46 C100.32 46.33 101.64 46.66 103 47 C103 47.66 103 48.32 103 49 C103.598125 49.103125 104.19625 49.20625 104.8125 49.3125 C107.31258286 50.09824033 108.37535082 50.96918853 110 53 C110 53.66 110 54.32 110 55 C110.59329102 55.26876953 111.18658203 55.53753906 111.79785156 55.81445312 C114.00540033 57.00290732 115.46542882 58.20742389 117.234375 59.96875 C117.80800781 60.53980469 118.38164062 61.11085938 118.97265625 61.69921875 C119.55917969 62.29347656 120.14570313 62.88773437 120.75 63.5 C121.35199219 64.09425781 121.95398438 64.68851562 122.57421875 65.30078125 C123.14269531 65.87183594 123.71117187 66.44289063 124.296875 67.03125 C124.81604492 67.55267578 125.33521484 68.07410156 125.87011719 68.61132812 C127 70 127 70 127 72 C127.87398438 72.35578125 127.87398438 72.35578125 128.765625 72.71875 C131.47552837 74.2726806 132.86530802 76.01929431 134.75 78.5 C135.36359375 79.2940625 135.9771875 80.088125 136.609375 80.90625 C138 83 138 83 138 85 C138.66 85 139.32 85 140 85 C144 90.41176471 144 90.41176471 144 93 C144.66 93 145.32 93 146 93 C150.42857143 100.42857143 150.42857143 100.42857143 151 104 C151.66 104 152.32 104 153 104 C153.51949219 105.03898437 154.03898437 106.07796875 154.57421875 107.1484375 C154.90969727 107.81915283 155.24517578 108.48986816 155.59082031 109.1809082 C156.32662651 110.653012 157.06164288 112.12551083 157.79589844 113.59838867 C159.34778078 116.70934435 160.90440655 119.81551705 162.50390625 122.90234375 C173.10077777 143.3984871 179.05467731 168.8717221 179.203125 191.953125 C179.21009399 192.68703964 179.21706299 193.42095428 179.22424316 194.17710876 C179.24154696 196.53479819 179.24796387 198.8922497 179.25 201.25 C179.25100708 202.05579498 179.25201416 202.86158997 179.25305176 203.69180298 C179.24260921 216.04027048 178.62552954 227.897906 176 240 C175.7831958 241.07290283 175.7831958 241.07290283 175.56201172 242.16748047 C172.05285985 259.45675694 166.39942884 275.49571913 158 291 C157.64534668 291.66773438 157.29069336 292.33546875 156.92529297 293.0234375 C152.19140176 301.91625338 146.96399884 310.20761456 140.96875 318.3046875 C139.02896185 320.80337997 139.02896185 320.80337997 138 323 C137.34 323 136.68 323 136 323 C135.75765625 323.54785156 135.5153125 324.09570312 135.265625 324.66015625 C131.37275299 331.85716345 125.43388665 338.02836031 119 343 C117.700625 344.3303125 117.700625 344.3303125 116.375 345.6875 C114.23028482 347.77577531 112.61113736 348.69443132 110 350 C109.67 350.99 109.34 351.98 109 353 C106.99581223 354.78711699 105.00171383 356.43340643 102.875 358.0625 C102.25189941 358.54493164 101.62879883 359.02736328 100.98681641 359.52441406 C81.77903522 374.20961406 60.81852945 386.15936435 38.02636719 394.24804688 C35.71928625 395.10416848 33.45370922 396.04407728 31.1796875 396.984375 C22.07565956 400.64395579 12.54222249 402.80199633 3 405 C2.08943848 405.2175293 1.17887695 405.43505859 0.24072266 405.65917969 C-31.08377357 412.81224127 -69.78746973 412.55749955 -101 405 C-101.93714844 404.78037598 -102.87429687 404.56075195 -103.83984375 404.33447266 C-126.81397361 398.82863048 -148.43877073 390.61781346 -169 379 C-170.61455078 378.12601562 -170.61455078 378.12601562 -172.26171875 377.234375 C-180.79099034 372.53515706 -188.58669936 367.17579647 -196.32714844 361.2734375 C-197.85781104 360.10823958 -199.40096368 358.95949647 -200.9453125 357.8125 C-205.54815829 354.34954392 -205.54815829 354.34954392 -207 353 C-207 352.34 -207 351.68 -207 351 C-207.66 351 -208.32 351 -209 351 C-209 350.34 -209 349.68 -209 349 C-209.54140625 348.7834375 -210.0828125 348.566875 -210.640625 348.34375 C-213.81645344 346.53500003 -216.20728081 344.08276201 -218.75 341.5 C-219.25660156 341.00113281 -219.76320312 340.50226563 -220.28515625 339.98828125 C-224 336.25341139 -224 336.25341139 -224 334 C-225.32 333.34 -226.64 332.68 -228 332 C-228 331.34 -228 330.68 -228 330 C-228.66 330 -229.32 330 -230 330 C-231.2265625 328.63671875 -231.2265625 328.63671875 -232.625 326.6875 C-233.15480469 325.9553125 -233.68460938 325.223125 -234.23046875 324.46875 C-234.81441406 323.6540625 -235.39835937 322.839375 -236 322 C-236.63550781 321.1440625 -237.27101562 320.288125 -237.92578125 319.40625 C-248.46698709 305.16027085 -258.02642505 289.76792969 -264 273 C-264.59554687 271.4221875 -264.59554687 271.4221875 -265.203125 269.8125 C-283.01538425 221.74086057 -281.13584748 168.35401695 -259.77734375 121.73828125 C-255.17863327 111.95629971 -249.74913732 102.8176984 -243.8203125 93.80078125 C-242.04588486 91.18546998 -242.04588486 91.18546998 -241 89 C-240.34 89 -239.68 89 -239 89 C-238.74605469 88.26394531 -238.49210937 87.52789062 -238.23046875 86.76953125 C-236.92593939 83.83330485 -235.49293817 82.03072137 -233.3125 79.6875 C-232.58933594 78.90117187 -231.86617187 78.11484375 -231.12109375 77.3046875 C-230.07115234 76.16386719 -230.07115234 76.16386719 -229 75 C-227.9554754 73.77326103 -226.91371748 72.54415991 -225.875 71.3125 C-222.35221347 67.2747818 -218.59189814 63.48291665 -214.8125 59.6875 C-214.20583496 59.07624268 -213.59916992 58.46498535 -212.97412109 57.83520508 C-205.11175948 50 -205.11175948 50 -202 50 C-202 49.34 -202 48.68 -202 48 C-201.34 48 -200.68 48 -200 48 C-200 47.34 -200 46.68 -200 46 C-198.1015625 44.4921875 -198.1015625 44.4921875 -195.625 42.875 C-194.81289062 42.33617187 -194.00078125 41.79734375 -193.1640625 41.2421875 C-191 40 -191 40 -189 40 C-189 39.34 -189 38.68 -189 38 C-186.56866946 36.36136603 -184.15228465 34.85078666 -181.625 33.375 C-180.57699219 32.74464844 -180.57699219 32.74464844 -179.5078125 32.1015625 C-174.27140828 29 -174.27140828 29 -172 29 C-172 28.34 -172 27.68 -172 27 C-138.6243811 9.6748909 -105.55934982 -0.67419441 -68 -4 C-67.01700928 -4.09498779 -66.03401855 -4.18997559 -65.02124023 -4.2878418 C-43.35465611 -6.3677895 -21.27163736 -4.45501206 0 0 Z M-131 12 C-132.01191406 12.35707031 -133.02382812 12.71414062 -134.06640625 13.08203125 C-142.40362782 16.14071744 -150.22428915 19.97654818 -158.10595703 24.03320312 C-160.88691766 25.45271899 -163.69546274 26.81529261 -166.5 28.1875 C-171.20103465 30.54443951 -175.67319482 33.00451949 -180 36 C-180 36.66 -180 37.32 -180 38 C-180.54527344 38.0825 -181.09054688 38.165 -181.65234375 38.25 C-184.81479065 39.26029918 -186.93004384 40.98096572 -189.5625 43 C-190.34379272 43.59687622 -190.34379272 43.59687622 -191.14086914 44.20581055 C-195.67905423 47.69561527 -200.1181266 51.30596003 -204.52734375 54.95703125 C-206.20191279 56.34060093 -207.89823748 57.6981816 -209.61328125 59.03125 C-211.76566438 60.80670187 -213.47402755 62.54826045 -215.25 64.6875 C-217.80565559 67.69025733 -220.46760227 70.45800377 -223.3125 73.1875 C-228.84963039 78.64890894 -233.38277292 84.76593905 -238 91 C-238.86238281 92.11181641 -238.86238281 92.11181641 -239.7421875 93.24609375 C-242.25248583 96.54351952 -243 97.70406914 -243 102 C-244.485 102.495 -244.485 102.495 -246 103 C-247.06916852 104.96389375 -248.06050129 106.9708765 -249 109 C-250.07174545 110.79862232 -251.15553947 112.59010877 -252.25 114.375 C-258.46334837 124.97191829 -263.18976731 136.03123919 -266 148 C-266.86450903 151.07981343 -267.73329958 154.15349568 -268.69458008 157.20458984 C-278.81111234 189.63061865 -275.45542669 225.90070827 -266 258 C-265.52240234 259.63001953 -265.52240234 259.63001953 -265.03515625 261.29296875 C-256.93238496 287.06186801 -242.35068683 309.54991188 -225 330 C-224.23816406 330.91652344 -223.47632813 331.83304687 -222.69140625 332.77734375 C-220.4456066 335.48378964 -220.4456066 335.48378964 -218 338 C-217.34 338 -216.68 338 -216 338 C-215.01 339.98 -215.01 339.98 -214 342 C-213.34 342 -212.68 342 -212 342 C-211.505 343.485 -211.505 343.485 -211 345 C-201.46687184 355.11006099 -188.65804677 363.61983594 -177 371 C-176.18273437 371.52078125 -175.36546875 372.0415625 -174.5234375 372.578125 C-168.61864233 376.23255849 -162.47445986 379.35813316 -156.2421875 382.40625 C-153.80089591 383.60630659 -151.40029744 384.84758848 -149 386.125 C-144.29387614 388.48820444 -139.29861927 390.11164816 -134.33203125 391.8359375 C-131.75645763 392.73572758 -129.22216856 393.68175977 -126.6875 394.6875 C-123.18481006 395.93422015 -119.81680784 396.7737389 -116.17578125 397.47265625 C-114 398 -114 398 -111.59375 398.99609375 C-108.77354208 400.08765013 -106.17649765 400.56124805 -103.1875 401 C-99.8177391 401.49856436 -96.61024873 402.10203534 -93.31079102 402.96582031 C-89.16010533 404.01182856 -85.04894018 404.64631216 -80.796875 405.109375 C-80.02559265 405.19346619 -79.2543103 405.27755737 -78.45965576 405.36419678 C-69.06603963 406.30127742 -59.6812506 406.30489992 -50.25 406.25 C-48.87600037 406.2463443 -48.87600037 406.2463443 -47.47424316 406.24261475 C-23.88869676 406.63596609 -23.88869676 406.63596609 -1 402 C1.47327247 401.53032257 3.95327252 401.09528356 6.4375 400.6875 C14.58161031 399.24703871 22.23639221 396.84809462 30 394 C30.6815918 393.75314453 31.36318359 393.50628906 32.06542969 393.25195312 C43.92969476 388.9446495 55.22642275 384.01134013 66.4375 378.1875 C67.41009766 377.69185547 68.38269531 377.19621094 69.38476562 376.68554688 C75.251008 373.64074372 80.67724067 370.29974657 86.02368164 366.41137695 C88 365 88 365 90 364 C90 363.34 90 362.68 90 362 C90.69222656 361.77957031 91.38445312 361.55914062 92.09765625 361.33203125 C95.7232744 359.66805307 98.47243166 357.29884089 101.4375 354.6875 C102.54019157 353.73287303 103.64305531 352.7784449 104.74609375 351.82421875 C105.54829346 351.12111572 105.54829346 351.12111572 106.36669922 350.40380859 C108.01766712 348.98481526 109.71021623 347.6291839 111.41015625 346.26953125 C112.69212891 345.14611328 112.69212891 345.14611328 114 344 C114 343.34 114 342.68 114 342 C114.5775 341.74863281 115.155 341.49726563 115.75 341.23828125 C121.39027368 338.1341723 126.32451299 332.20693993 130 327 C130 326.34 130 325.68 130 325 C130.66 325 131.32 325 132 325 C147.752283 306.81660355 159.86863944 283.84473044 167 261 C167.34562988 259.89821411 167.34562988 259.89821411 167.69824219 258.77416992 C169.61018314 252.54875086 171.19099454 246.28872791 172.625 239.9375 C172.94984375 238.5443457 172.94984375 238.5443457 173.28125 237.12304688 C183.97268436 190.10053466 171.12391155 140.18247412 146.13671875 100.00390625 C144.43971466 97.32576489 142.72363443 94.66104965 141 92 C140.29875 90.88625 139.5975 89.7725 138.875 88.625 C136.81881806 85.74634529 134.53035989 83.47151431 132 81 C128.61572808 77.25785104 125.34253529 73.43681394 122.1875 69.5 C121.465625 68.675 120.74375 67.85 120 67 C119.34 67 118.68 67 118 67 C117.73960937 66.40445313 117.47921875 65.80890625 117.2109375 65.1953125 C115.91233375 62.84106957 114.67520844 61.59648303 112.625 59.875 C111.92375 59.28332031 111.2225 58.69164062 110.5 58.08203125 C109.2625 57.05142578 109.2625 57.05142578 108 56 C106.95753733 55.1090034 105.91591739 54.21702016 104.875 53.32421875 C103.79210787 52.40312688 102.70877597 51.48255176 101.625 50.5625 C101.10115723 50.11310059 100.57731445 49.66370117 100.03759766 49.20068359 C97.38359713 46.73609458 97.38359713 46.73609458 94 46 C94 45.34 94 44.68 94 44 C91.82777154 42.38193386 91.82777154 42.38193386 89.0625 40.75 C85.48826495 38.54520367 81.95997283 36.31740871 78.5 33.9375 C68.2170242 27.05174178 56.74919957 20.88129768 45 17 C42.82604698 16.05831243 40.65971813 15.09889159 38.5 14.125 C31.49966294 11.05944426 24.40289987 8.90837376 17 7 C15.67311252 6.6460753 14.34629135 6.29190192 13.01953125 5.9375 C5.64364991 4.00010537 -1.66411409 2.43381231 -9.23046875 1.39453125 C-10.98501007 1.14458954 -12.73393044 0.84671073 -14.46875 0.484375 C-51.71315503 -6.64264078 -95.71420065 -0.74077856 -131 12 Z " fill="#A7A7A7" transform="translate(305,50)"/>
<path d="M0 0 C6.18378579 1.06283818 10.47547812 6.09434765 14.25 10.8125 C22.39682649 25.65136253 25.69931158 42.87913335 21.25 59.375 C18.71347881 67.80993951 15.05054507 74.53577222 9.25 81.125 C8.71705322 81.73537109 8.18410645 82.34574219 7.63500977 82.97460938 C3.79636361 87.28605236 -0.02316177 91.01578581 -5 94 C-6.31291016 94.79664063 -6.31291016 94.79664063 -7.65234375 95.609375 C-17.42791609 101.24139198 -24.7706063 102.33688181 -36 102 C-35.37368346 97.51885425 -34.2371345 96.07291102 -30.60546875 93.3125 C-28.72816023 91.86331159 -28.72816023 91.86331159 -26.5625 89.0625 C-24.55436552 86.6625344 -22.96801149 85.1227118 -20.5625 83.25 C-15.81093867 79.26952538 -11.88893019 73.99289953 -10.5234375 67.859375 C-10.24976865 61.54011241 -12.93694722 56.12610555 -15.6875 50.625 C-17 48 -17 48 -17 46 C-18.485 45.505 -18.485 45.505 -20 45 C-21.18359375 43.609375 -21.18359375 43.609375 -22.4375 41.75 C-25.88140236 36.9215262 -29.90675362 32.72137773 -34.03686523 28.48144531 C-38 24.32155918 -38 24.32155918 -38 21 C-30.81131416 21.54059074 -23.95166086 22.7326599 -16.9375 24.375 C-16.00873047 24.58382813 -15.07996094 24.79265625 -14.12304688 25.0078125 C-8.28844511 26.35079452 -2.6403309 27.99211521 3 30 C2.566875 29.05125 2.13375 28.1025 1.6875 27.125 C-1.43163555 19.7578989 -4.28835074 12.11000271 -3 4 C-1.5 1.4375 -1.5 1.4375 0 0 Z " fill="#80BC8D" transform="translate(304,282)"/>
<path d="M0 0 C1.75 0.9375 1.75 0.9375 2.75 3.9375 C2.70792876 12.61469229 1.80487597 20.77195101 -1.25 28.9375 C1.14690917 28.3164141 3.54247494 27.69077634 5.9375 27.0625 C6.61103516 26.88847656 7.28457031 26.71445312 7.97851562 26.53515625 C10.85490673 25.77747274 13.64270737 24.98041705 16.40625 23.875 C23.16221212 21.17261515 30.54808417 20.66572959 37.75 20.9375 C36.8676183 26.89357645 31.9973868 31.02543321 27.75 34.9375 C27.09 34.9375 26.43 34.9375 25.75 34.9375 C25.48960937 35.49953125 25.22921875 36.0615625 24.9609375 36.640625 C23.62619543 39.17232932 22.06109162 41.37556651 20.375 43.6875 C17.35708033 47.9477234 14.8860831 52.18229993 12.75 56.9375 C12.3375 57.7625 11.925 58.5875 11.5 59.4375 C10.1318524 63.99799199 9.72457367 67.77747647 11.77734375 72.1015625 C17.374268 80.87679554 25.16605197 89.84260478 33.5625 96 C34.284375 96.639375 35.00625 97.27875 35.75 97.9375 C35.75 99.2575 35.75 100.5775 35.75 101.9375 C21.73211295 103.0879041 9.65704472 99.03043667 -1.25 89.9375 C-2.96172937 88.14073872 -4.53907427 86.31655799 -6.05859375 84.35546875 C-7.21365329 82.79021317 -7.21365329 82.79021317 -9.25 81.9375 C-10.23209172 80.31196887 -11.2036216 78.67886449 -12.11328125 77.01171875 C-12.87408074 75.62345577 -13.66370261 74.25062233 -14.48046875 72.89453125 C-22.39200225 59.53012543 -24.58984855 45.19085593 -21.5546875 29.92578125 C-19.02302648 20.25653812 -15.02936707 10.52004137 -7.25 3.9375 C-6.404375 3.15375 -5.55875 2.37 -4.6875 1.5625 C-2.25 -0.0625 -2.25 -0.0625 0 0 Z " fill="#80BC8D" transform="translate(218.25,282.0625)"/>
<path d="M0 0 C6.29085224 3.59858073 12.52369266 7.99308016 15.265625 14.90625 C17.16163934 21.95224923 16.33022644 28.61045041 13.0390625 35.0546875 C9.37379535 41.18742208 4.97435108 45.38890793 -1.9609375 47.640625 C-11.31522059 49.40495598 -20.72271263 48.51779662 -29.15625 44.0546875 C-32.09375 41.6171875 -32.09375 41.6171875 -34.15625 39.0546875 C-35.27 37.848125 -35.27 37.848125 -36.40625 36.6171875 C-40.63244513 30.42883034 -39.85583407 21.01899723 -38.59375 13.8671875 C-31.41567096 -0.17688018 -14.77325816 -6.57284791 0 0 Z " fill="#C0E2CC" transform="translate(358.15625,131.9453125)"/>
<path d="M0 0 C3.53658245 1.89927576 5.73680441 3.80788836 8.375 6.8125 C9.07625 7.43125 9.7775 8.05 10.5 8.6875 C15.57857392 14.44321711 15.92813929 20.21187583 15.71484375 27.66015625 C15.00592611 34.23597848 12.36595101 38.13602867 7.625 42.625 C-0.45943417 49.11031532 -8.37440346 49.84791379 -18.625 48.8125 C-25.00422488 47.24092937 -29.35435046 44.75043853 -33.625 39.8125 C-34.285 39.4825 -34.945 39.1525 -35.625 38.8125 C-39.35283605 30.34791814 -40.01950973 21.92126093 -36.8125 13.25 C-35.79296875 10.74609375 -35.79296875 10.74609375 -34.625 8.8125 C-33.635 8.4825 -32.645 8.1525 -31.625 7.8125 C-31.295 6.8225 -30.965 5.8325 -30.625 4.8125 C-28.8828125 3.4609375 -28.8828125 3.4609375 -26.75 2.1875 C-26.05132812 1.76210937 -25.35265625 1.33671875 -24.6328125 0.8984375 C-17.93957092 -2.72164257 -7.16332044 -2.43360406 0 0 Z " fill="#C0E2CC" transform="translate(180.625,131.1875)"/>
<path d="M0 0 C2.5625 1.5625 2.5625 1.5625 4 4 C4.58184511 8.0001851 4.33923762 10.27526509 2.625 13.9375 C-0.85964292 16.67543373 -3.36819893 16.71732568 -7.71484375 16.48046875 C-10 16 -10 16 -12.125 13.9375 C-13.19217464 10.35484227 -13.47333307 7.71904551 -13 4 C-10.02640665 -1.04218002 -5.30304509 -0.94384472 0 0 Z " fill="#C0DBC6" transform="translate(238,285)"/>
<path d="M0 0 C2.0625 1.5625 2.0625 1.5625 3 4 C3.40555143 7.71755475 3.19861526 10.37767218 2.0625 13.9375 C-0.34322203 16.34322203 -1.07793288 16.39792094 -4.375 16.5625 C-7.53027643 16.36175648 -9.15903504 15.92210529 -12.0625 14.5 C-14.40996226 11.47101644 -14.74665787 9.67201592 -14.47265625 5.90625 C-14 4 -14 4 -12.0625 1.5 C-7.95573853 -0.51147501 -4.49330904 -0.83978994 0 0 Z " fill="#BFDAC5" transform="translate(294,285)"/>
<path d="M0 0 C0.02741912 1.5415636 0.04658248 3.08327474 0.0625 4.625 C0.07410156 5.48351562 0.08570313 6.34203125 0.09765625 7.2265625 C0 10 0 10 -0.49780273 12.6965332 C-1.05859845 16.38546217 -1.12962244 19.89767215 -1.1328125 23.62890625 C-1.13424759 24.69708839 -1.13424759 24.69708839 -1.13571167 25.78684998 C-1.13638858 27.28360076 -1.13456863 28.78035456 -1.13037109 30.27709961 C-1.12500787 32.55914938 -1.13033678 34.84100308 -1.13671875 37.12304688 C-1.13605804 38.58333376 -1.13477701 40.04362053 -1.1328125 41.50390625 C-1.13168457 42.82205322 -1.13055664 44.1402002 -1.12939453 45.49829102 C-1.01892071 48.48796278 -0.65738496 51.09641543 0 54 C0.06459042 55.76977761 0.08611065 57.54170152 0.0625 59.3125 C0.05347656 60.19550781 0.04445313 61.07851563 0.03515625 61.98828125 C0.02355469 62.65214844 0.01195312 63.31601562 0 64 C-0.66 64 -1.32 64 -2 64 C-4.49651158 53.68108545 -5.19576972 43.66759396 -5.1875 33.0625 C-5.18669434 31.98162109 -5.18588867 30.90074219 -5.18505859 29.78710938 C-5.13273044 22.82233408 -4.82733457 15.92992509 -4.125 9 C-4.04660889 8.19957275 -3.96821777 7.39914551 -3.88745117 6.57446289 C-3.67106316 4.70539324 -3.34674881 2.84932701 -3 1 C-1 0 -1 0 0 0 Z " fill="#A2A2A2" transform="translate(33,220)"/>
<path d="M0 0 C0.763125 0.07831055 1.52625 0.15662109 2.3125 0.23730469 C6.19218944 0.69260997 8.69639081 1.3481954 12.25 3.125 C-7.22 3.125 -26.69 3.125 -46.75 3.125 C-43.08290802 0.68027201 -39.83344667 0.43351714 -35.5625 0 C-34.75876953 -0.0834668 -33.95503906 -0.16693359 -33.12695312 -0.25292969 C-22.0064081 -1.32473674 -11.10392202 -1.15964347 0 0 Z " fill="#A2A2A2" transform="translate(273.75,45.875)"/>
<path d="M0 0 C1.60405891 -0.02792366 3.20827494 -0.0467943 4.8125 -0.0625 C5.70582031 -0.07410156 6.59914062 -0.08570313 7.51953125 -0.09765625 C10.36297738 -0.01787381 13.11073611 0.18772669 15.9375 0.46875 C23.0099842 1.14532157 30.08844717 1.34630318 37.1875 1.5625 C38.53451468 1.60582646 39.88152001 1.64944448 41.22851562 1.69335938 C44.48559727 1.79842652 47.74274197 1.90057834 51 2 C50.67 2.66 50.34 3.32 50 4 C44.02263584 4.04965857 38.04539337 4.08584173 32.06787109 4.10986328 C30.03692532 4.11988386 28.00599383 4.13350401 25.97509766 4.15087891 C23.04586242 4.17530117 20.11681894 4.18652279 17.1875 4.1953125 C15.83857666 4.21079636 15.83857666 4.21079636 14.46240234 4.22659302 C8.96421429 4.22755847 4.28015442 3.55077706 -1 2 C-0.67 1.34 -0.34 0.68 0 0 Z " fill="#9A9A9A" transform="translate(223,455)"/>
<path d="M0 0 C-3.46395577 2.30930385 -7.00186992 4.46908396 -10.5625 6.625 C-11.24763672 7.04523438 -11.93277344 7.46546875 -12.63867188 7.8984375 C-17.76934101 11 -17.76934101 11 -20 11 C-20 11.66 -20 12.32 -20 13 C-21.010625 13.556875 -22.02125 14.11375 -23.0625 14.6875 C-26.90878446 16.87752727 -30.43460872 19.38052885 -34 22 C-34.66 21.67 -35.32 21.34 -36 21 C-34.9024777 18.00675737 -34.32317108 17.15389099 -31.375 15.75 C-30.59125 15.5025 -29.8075 15.255 -29 15 C-29 14.34 -29 13.68 -29 13 C-26.56866946 11.36136603 -24.15228465 9.85078666 -21.625 8.375 C-20.57699219 7.74464844 -20.57699219 7.74464844 -19.5078125 7.1015625 C-14.27140828 4 -14.27140828 4 -12 4 C-12 3.34 -12 2.68 -12 2 C-10.56656 1.46809459 -9.12804633 0.94984742 -7.6875 0.4375 C-6.88699219 0.14746094 -6.08648437 -0.14257812 -5.26171875 -0.44140625 C-3 -1 -3 -1 0 0 Z " fill="#A5A5A5" transform="translate(145,75)"/>
<path d="M0 0 C0 0.66 0 1.32 0 2 C-7.72720775 3.23107719 -15.1683819 4.2700558 -23 4 C-23 3.67 -23 3.34 -23 3 C-36.86 2.505 -36.86 2.505 -51 2 C-51 1.67 -51 1.34 -51 1 C-49.66207397 0.96241577 -49.66207397 0.96241577 -48.29711914 0.92407227 C-44.94789975 0.82821882 -41.59881176 0.72903508 -38.24975586 0.62768555 C-36.80773698 0.58470988 -35.36567933 0.54301352 -33.92358398 0.50268555 C-1.29213553 -0.41348337 -1.29213553 -0.41348337 0 0 Z " fill="#AEAEAE" transform="translate(296,455)"/>
<path d="M0 0 C1.87874807 3.75749614 0.24406183 8.15307094 -1 12 C-2.50254997 14.25382495 -3.79147832 15.34360874 -6 17 C-6.66 17 -7.32 17 -8 17 C-8.103125 18.03125 -8.20625 19.0625 -8.3125 20.125 C-8.99127797 23.95083945 -10.11158795 26.63370025 -12 30 C-12.66 30 -13.32 30 -14 30 C-10.97677583 19.4187154 -5.7915346 9.33884955 0 0 Z " fill="#8DBD99" transform="translate(78,155)"/>
<path d="M0 0 C4.30756184 4.30756184 4.125 12.85871225 4.125 18.75 C4.08375 19.8225 4.0425 20.895 4 22 C3.34 22 2.68 22 2 22 C2 23.65 2 25.3 2 27 C1.67 27 1.34 27 1 27 C0.66068773 24.33397504 0.32842824 21.66736986 0 19 C-0.09539062 18.25621094 -0.19078125 17.51242188 -0.2890625 16.74609375 C-1.87194056 3.74388112 -1.87194056 3.74388112 0 0 Z " fill="#ACACAC" transform="translate(479,212)"/>
<path d="M0 0 C1.99641149 2.99461723 2.6651717 4.48430284 3 8 C2.0625 10.8125 2.0625 10.8125 1 13 C-3.75 12.125 -3.75 12.125 -6 11 C-6 9.68 -6 8.36 -6 7 C-5.34 7 -4.68 7 -4 7 C-3.71125 6.21625 -3.4225 5.4325 -3.125 4.625 C-2 2 -2 2 0 0 Z " fill="#80BB8B" transform="translate(283,416)"/>
<path d="M0 0 C0 4.03662358 -1.45631719 4.91201059 -4.1875 7.8125 C-8.0520008 11.96395688 -8.0520008 11.96395688 -11.6875 16.3125 C-14.25098172 19.29168146 -16.9225294 21.56665116 -20 24 C-20.66 23.67 -21.32 23.34 -22 23 C-15.17373008 14.84177497 -7.56200163 7.46720316 0 0 Z " fill="#E6F6E8" transform="translate(221,212)"/>
<path d="M0 0 C0.71478516 -0.01224609 1.42957031 -0.02449219 2.16601562 -0.03710938 C4.00802524 -0.0423177 5.84958123 0.06469456 7.6875 0.1875 C8.3475 0.8475 9.0075 1.5075 9.6875 2.1875 C6.11399959 3.00648622 2.83090521 3.30561958 -0.83203125 3.28515625 C-1.85361328 3.28193359 -2.87519531 3.27871094 -3.92773438 3.27539062 C-4.98283203 3.26701172 -6.03792969 3.25863281 -7.125 3.25 C-8.19943359 3.24548828 -9.27386719 3.24097656 -10.38085938 3.23632812 C-13.02479683 3.22457729 -15.66861952 3.20814787 -18.3125 3.1875 C-12.88588578 -0.43024281 -6.34251019 0.00587814 0 0 Z " fill="#9A9A9A" transform="translate(245.3125,45.8125)"/>
<path d="M0 0 C0.33 0.66 0.66 1.32 1 2 C3.02463255 2.65213292 3.02463255 2.65213292 5 3 C5 3.66 5 4.32 5 5 C5.598125 5.103125 6.19625 5.20625 6.8125 5.3125 C9.31258286 6.09824033 10.37535082 6.96918853 12 9 C12 9.66 12 10.32 12 11 C12.99 11.33 13.98 11.66 15 12 C14.01 12.99 13.02 13.98 12 15 C10.58191941 13.75160427 9.16560005 12.50120779 7.75 11.25 C6.96109375 10.55390625 6.1721875 9.8578125 5.359375 9.140625 C3.16988144 7.15413084 1.07098715 5.10898692 -1 3 C-0.67 2.01 -0.34 1.02 0 0 Z " fill="#ABABAB" transform="translate(403,94)"/>
<path d="M0 0 C0.99 0 1.98 0 3 0 C2.43037415 3.84716536 0.68137403 5.76366718 -1.9375 8.5625 C-4.2022719 10.99990424 -6.14905062 13.22357593 -8 16 C-8.66 16 -9.32 16 -10 16 C-8.71477239 11.45841851 -7.02117356 8.29441637 -4.0625 4.625 C-3.37285156 3.75101562 -2.68320313 2.87703125 -1.97265625 1.9765625 C-1.32167969 1.32429688 -0.67070313 0.67203125 0 0 Z " fill="#A6A6A6" transform="translate(80,120)"/>
<path d="M0 0 C1.5 1.3125 1.5 1.3125 3 3 C3 3.99 3 4.98 3 6 C3.66 6 4.32 6 5 6 C6.32 8.97 7.64 11.94 9 15 C7.68 15.33 6.36 15.66 5 16 C4.74605469 15.46890625 4.49210937 14.9378125 4.23046875 14.390625 C2.02202254 9.85008296 2.02202254 9.85008296 -0.8125 5.6875 C-1.4003125 4.8521875 -1.4003125 4.8521875 -2 4 C-1 1 -1 1 0 0 Z " fill="#ABABAB" transform="translate(453,148)"/>
<path d="M0 0 C7.87055731 0.32057045 14.790975 0.6838485 22 4 C22.33 2.68 22.66 1.36 23 0 C24.4606285 2.64738916 25 3.89448334 25 7 C22.33316351 6.37571782 19.66652933 5.75059174 17 5.125 C16.25621094 4.95097656 15.51242187 4.77695312 14.74609375 4.59765625 C9.81947641 3.44097218 4.90686184 2.23786742 0 1 C0 0.67 0 0.34 0 0 Z " fill="#DBF2E1" transform="translate(282,305)"/>
<path d="M0 0 C4.62162162 1.45945946 4.62162162 1.45945946 6.3125 3.875 C7 6 7 6 7 10 C7.99 10.33 8.98 10.66 10 11 C11.0625 12.75 11.0625 12.75 12 15 C12.391875 15.825 12.78375 16.65 13.1875 17.5 C14.08666291 20.2666551 13.80878528 21.29257693 13 24 C12.64808594 23.26136719 12.29617188 22.52273438 11.93359375 21.76171875 C8.76473723 15.25025639 5.31364036 9.12388443 1.3203125 3.08203125 C0 1 0 1 0 0 Z " fill="#8EBB99" transform="translate(338,262)"/>
<path d="M0 0 C0 0.99 0 1.98 0 3 C-2.26404542 4.36680153 -4.53501021 5.71844445 -6.8125 7.0625 C-7.45509766 7.45244141 -8.09769531 7.84238281 -8.75976562 8.24414062 C-10.4628915 9.24130759 -12.22945858 10.12812687 -14 11 C-14.99 10.67 -15.98 10.34 -17 10 C-12.05353163 5.65675948 -6.71424278 1.07427884 0 0 Z " fill="#9F9F9F" transform="translate(388,419)"/>
<path d="M0 0 C0.33 0 0.66 0 1 0 C1.02578125 1.09957031 1.0515625 2.19914062 1.078125 3.33203125 C1.35704565 11.40426935 1.96339893 18.21634367 5.14453125 25.75 C6.21677143 28.57013855 6.32291589 31.01302802 6 34 C0.29176013 28.29176013 -0.22392815 19.65192844 -0.27685547 12.00732422 C-0.23784142 8.00164499 -0.14241461 4.00343305 0 0 Z " fill="#A1C9AB" transform="translate(196,316)"/>
<path d="M0 0 C0.33 0.99 0.66 1.98 1 3 C0.54625 3.4125 0.0925 3.825 -0.375 4.25 C-2.05950374 6.06408095 -2.99265971 7.75285627 -4 10 C-4.99 10 -5.98 10 -7 10 C-7.20625 10.5775 -7.4125 11.155 -7.625 11.75 C-9.49750888 14.81410544 -11.96958519 16.15539968 -15 18 C-15.66 17.67 -16.32 17.34 -17 17 C-16.55269531 16.62488281 -16.10539062 16.24976563 -15.64453125 15.86328125 C-9.88100158 10.98455784 -4.76582968 5.85516218 0 0 Z " fill="#93BE9D" transform="translate(289,359)"/>
<path d="M0 0 C-1.29603412 2.82868857 -2.69189598 4.9701021 -4.8203125 7.234375 C-5.35527344 7.80800781 -5.89023437 8.38164062 -6.44140625 8.97265625 C-6.99699219 9.55917969 -7.55257813 10.14570313 -8.125 10.75 C-8.68832031 11.35199219 -9.25164062 11.95398438 -9.83203125 12.57421875 C-11.21724146 14.05334151 -12.6080729 15.52719641 -14 17 C-14.33 16.01 -14.66 15.02 -15 14 C-13.04783565 12.04783565 -11.46800047 11.15173355 -9 10 C-9.33 9.01 -9.66 8.02 -10 7 C-8.71372289 5.82739389 -7.42080217 4.6620717 -6.125 3.5 C-5.40570313 2.8503125 -4.68640625 2.200625 -3.9453125 1.53125 C-2 0 -2 0 0 0 Z " fill="#8FBC9A" transform="translate(431,358)"/>
<path d="M0 0 C4.6646121 5.97770666 4.12818295 11.66508693 4 19 C3.34 19 2.68 19 2 19 C0.26044666 12.56986533 -0.24991456 6.65050424 0 0 Z " fill="#9D9D9D" transform="translate(29,265)"/>
<path d="M0 0 C3 1.75 3 1.75 6 4 C6 5.32 6 6.64 6 8 C1.38 8 -3.24 8 -8 8 C-8 7.67 -8 7.34 -8 7 C-5.69 7 -3.38 7 -1 7 C-0.67 4.69 -0.34 2.38 0 0 Z " fill="#90C09A" transform="translate(248,376)"/>
<path d="M0 0 C9.69389866 1.35263702 9.69389866 1.35263702 12.64453125 5.07421875 C13.09183594 5.70972656 13.53914063 6.34523438 14 7 C2.47835991 5.07289294 2.47835991 5.07289294 -3 3 C-2.01 2.67 -1.02 2.34 0 2 C0 1.34 0 0.68 0 0 Z " fill="#ADADAD" transform="translate(185,446)"/>
<path d="M0 0 C0.33 0.66 0.66 1.32 1 2 C-3.8518894 9.06989598 -9.45014975 14.5071861 -16 20 C-16.66 19.67 -17.32 19.34 -18 19 C-17.52578613 18.53102295 -17.05157227 18.0620459 -16.56298828 17.57885742 C-14.41436915 15.45103477 -12.26965202 13.31932077 -10.125 11.1875 C-9.37863281 10.44951172 -8.63226563 9.71152344 -7.86328125 8.95117188 C-7.14785156 8.23896484 -6.43242187 7.52675781 -5.6953125 6.79296875 C-5.03547363 6.1383667 -4.37563477 5.48376465 -3.69580078 4.80932617 C-1.81831708 2.9054354 -1.81831708 2.9054354 0 0 Z " fill="#E5F8E9" transform="translate(426,364)"/>
<path d="M0 0 C3 2 3 2 3.51171875 3.9453125 C3.67447917 5.96354167 3.83723958 7.98177083 4 10 C3.34 10 2.68 10 2 10 C1.67 10.99 1.34 11.98 1 13 C1 12.01 1 11.02 1 10 C-2.63 10 -6.26 10 -10 10 C-10.33 8.68 -10.66 7.36 -11 6 C-6.71 6.66 -2.42 7.32 2 8 C1.34 5.36 0.68 2.72 0 0 Z " fill="#8CBB98" transform="translate(401,202)"/>
<path d="M0 0 C2.86724686 0.57344937 3.8614515 0.8614515 6 3 C4 4 4 4 0 3 C0 7.95 0 12.9 0 18 C-3.21014183 13.18478725 -3.61063021 9.72974682 -3 4 C-1.5 1.4375 -1.5 1.4375 0 0 Z " fill="#A1C8A9" transform="translate(304,282)"/>
<path d="M0 0 C0.33 0.99 0.66 1.98 1 3 C1.66 3 2.32 3 3 3 C3.33 2.34 3.66 1.68 4 1 C4.36504603 2.58086048 4.71660506 4.16483907 5.0625 5.75 C5.25972656 6.63171875 5.45695312 7.5134375 5.66015625 8.421875 C6.00416684 11.03161048 5.92938216 12.55705262 5 15 C4.34 15.66 3.68 16.32 3 17 C2.49453964 14.91798472 1.99583165 12.83432933 1.5 10.75 C1.2215625 9.58984375 0.943125 8.4296875 0.65625 7.234375 C0 4 0 4 0 0 Z " fill="#ACACAC" transform="translate(30,281)"/>
<path d="M0 0 C-6.53504298 3.32399717 -12.75361298 4.9706067 -20 6 C-20.33 5.34 -20.66 4.68 -21 4 C-18.25336296 3.13343002 -15.5035757 2.28148214 -12.75 1.4375 C-11.97269531 1.19064453 -11.19539063 0.94378906 -10.39453125 0.68945312 C-9.26337891 0.34624023 -9.26337891 0.34624023 -8.109375 -0.00390625 C-7.07248535 -0.32597046 -7.07248535 -0.32597046 -6.01464844 -0.65454102 C-3.71321296 -1.0491764 -2.20383318 -0.71084423 0 0 Z " fill="#92BE9D" transform="translate(135,207)"/>
<path d="M0 0 C3 1 3 1 4.1875 3 C5.28113733 7.03804554 5.16301345 10.84315708 5 15 C4.34 15 3.68 15 3 15 C2.49363393 13.25183142 1.99515381 11.50137737 1.5 9.75 C1.2215625 8.77546875 0.943125 7.8009375 0.65625 6.796875 C0 4 0 4 0 0 Z " fill="#9E9E9F" transform="translate(474,199)"/>
<path d="M0 0 C0.33 0 0.66 0 1 0 C1.08636719 0.97839844 1.17273438 1.95679688 1.26171875 2.96484375 C2.05312041 10.34883909 2.81794616 16.06879361 7.07421875 22.36328125 C7.37972656 22.90339844 7.68523437 23.44351562 8 24 C7.67 24.66 7.34 25.32 7 26 C6.01 26 5.02 26 4 26 C4 23.69 4 21.38 4 19 C3.34 19 2.68 19 2 19 C0.27706865 14.53665816 -0.22240791 10.89798769 -0.125 6.125 C-0.10695312 4.97257812 -0.08890625 3.82015625 -0.0703125 2.6328125 C-0.04710937 1.76398438 -0.02390625 0.89515625 0 0 Z " fill="#9AC4A4" transform="translate(152,320)"/>
<path d="M0 0 C0.99 0.33 1.98 0.66 3 1 C2.54554036 2.41791408 2.08625056 3.83428046 1.625 5.25 C1.36976562 6.03890625 1.11453125 6.8278125 0.8515625 7.640625 C0.04826333 9.86627958 -0.89711662 11.90931672 -2 14 C-2.66 14 -3.32 14 -4 14 C-4.56561146 8.34388537 -2.71391278 4.77357872 0 0 Z " fill="#A2A2A2" transform="translate(49,164)"/>
<path d="M0 0 C0.33 0 0.66 0 1 0 C1.0809723 2.43816585 1.14046972 4.87364384 1.1875 7.3125 C1.22520508 8.34793945 1.22520508 8.34793945 1.26367188 9.40429688 C1.33834499 14.55674183 1.33834499 14.55674183 -0.51171875 16.98046875 C-1.24841797 17.48513672 -1.24841797 17.48513672 -2 18 C-2.2361959 11.59646678 -1.823321 6.15370839 0 0 Z " fill="#9B9A9A" transform="translate(481,271)"/>
<path d="M0 0 C1.8125 0.1875 1.8125 0.1875 4 1 C6.36426147 4.15234863 7.68873037 7.05725132 8 11 C7.01 12.485 7.01 12.485 6 14 C5.34 13.67 4.68 13.34 4 13 C3.7698891 11.02762085 3.54352056 9.05458209 3.3515625 7.078125 C2.8768776 4.27220982 1.64556044 2.2894754 0 0 Z " fill="#88BA93" transform="translate(400,199)"/>
<path d="M0 0 C0.33 0 0.66 0 1 0 C0.7444669 5.86448454 0.34242429 9.65757571 -4 14 C-4.31549088 8.7418187 -3.70016294 5.53627373 -1 1 C-0.67 0.67 -0.34 0.34 0 0 Z " fill="#A1A1A1" transform="translate(40,189)"/>
<path d="M0 0 C0.66 0.66 1.32 1.32 2 2 C1.40362909 3.58628608 0.79754075 5.16892059 0.1875 6.75 C-0.31716797 8.07257813 -0.31716797 8.07257813 -0.83203125 9.421875 C-2 12 -2 12 -5 16 C-5 12.37 -5 8.74 -5 5 C-4.34 5.66 -3.68 6.32 -3 7 C-2.01 4.69 -1.02 2.38 0 0 Z " fill="#8BBD97" transform="translate(455,312)"/>
<path d="M0 0 C0 2.76857389 -0.34795136 4.60152855 -1.09375 7.23046875 C-1.31933594 8.03291016 -1.54492188 8.83535156 -1.77734375 9.66210938 C-2.13505859 10.91217773 -2.13505859 10.91217773 -2.5 12.1875 C-2.73847656 13.03248047 -2.97695312 13.87746094 -3.22265625 14.74804688 C-3.81163048 16.83301564 -4.40536099 18.91663977 -5 21 C-6.73304237 18.00774333 -7.07762489 17.35989723 -6.3125 13.8125 C-5.88416487 12.53854842 -5.44564644 11.26799955 -5 10 C-4.75636719 9.20207031 -4.51273438 8.40414063 -4.26171875 7.58203125 C-2.79659319 2.85606212 -2.79659319 2.85606212 -2 1 C-1.34 0.67 -0.68 0.34 0 0 Z " fill="#93BC9B" transform="translate(159,294)"/>
<path d="M0 0 C0 0.99 0 1.98 0 3 C-1.91503674 3.22281874 -3.83216506 3.42771076 -5.75 3.625 C-6.81734375 3.74101562 -7.8846875 3.85703125 -8.984375 3.9765625 C-12.03792399 4.00029475 -13.46162421 3.61420985 -16 2 C-10.61972975 0.80911014 -5.54708616 -0.2919519 0 0 Z " fill="#9E9E9E" transform="translate(308,452)"/>
<path d="M0 0 C1.890625 0.32421875 1.890625 0.32421875 4 1 C6.28905989 4.67884625 7 6.61551956 7 11 C4.32423308 9.99382318 3.2214892 9.45785454 1.953125 6.8359375 C1.72109375 6.02382812 1.4890625 5.21171875 1.25 4.375 C1.00765625 3.55773437 0.7653125 2.74046875 0.515625 1.8984375 C0.34546875 1.27195313 0.1753125 0.64546875 0 0 Z " fill="#9FA0A0" transform="translate(459,163)"/>
<path d="M0 0 C0.33 0 0.66 0 1 0 C0.40546697 15.74487472 0.40546697 15.74487472 -3 23 C-4.01498547 19.82540369 -3.94466465 17.69122329 -3.22265625 14.453125 C-3.03896484 13.60878906 -2.85527344 12.76445312 -2.66601562 11.89453125 C-2.46685547 11.02183594 -2.26769531 10.14914062 -2.0625 9.25 C-1.86720703 8.36183594 -1.67191406 7.47367187 -1.47070312 6.55859375 C-0.98838288 4.37050678 -0.49790968 2.1845827 0 0 Z " fill="#94BD9C" transform="translate(220,286)"/>
<path d="M0 0 C5.28137429 0.51525603 8.57221156 2.25477117 13 5 C13 5.33 13 5.66 13 6 C7.36529617 6.5497272 4.61012242 4.95047835 0 2 C0 1.34 0 0.68 0 0 Z " fill="#A0A0A0" transform="translate(131,424)"/>
<path d="M0 0 C-0.39803561 2.88575819 -0.79009069 3.82189513 -3.0625 5.75 C-3.701875 6.1625 -4.34125 6.575 -5 7 C-5.33 5.35 -5.66 3.7 -6 2 C-7.98 2 -9.96 2 -12 2 C-8.09971775 -0.60018816 -4.52565431 -0.15085514 0 0 Z " fill="#96C19F" transform="translate(256,303)"/>
<path d="M0 0 C3.3 0.33 6.6 0.66 10 1 C9.67 1.99 9.34 2.98 9 4 C2.73 3.67 -3.54 3.34 -10 3 C-10 2.67 -10 2.34 -10 2 C-6.7 1.67 -3.4 1.34 0 1 C0 0.67 0 0.34 0 0 Z " fill="#B6B6B6" transform="translate(282,47)"/>
<path d="M0 0 C0.66 0.99 1.32 1.98 2 3 C-1.16952847 6.26008643 -4.39937989 9.22237877 -8 12 C-8.66 11.34 -9.32 10.68 -10 10 C-9.34 10 -8.68 10 -8 10 C-7.34 8.68 -6.68 7.36 -6 6 C-5.34 6 -4.68 6 -4 6 C-3.67 5.01 -3.34 4.02 -3 3 C-1.4375 1.3125 -1.4375 1.3125 0 0 Z " fill="#92C0A0" transform="translate(335,369)"/>
<path d="M0 0 C3.14737182 0.69941596 6.02588876 1.76078698 9 3 C8.01 3.495 8.01 3.495 7 4 C7 4.66 7 5.32 7 6 C5.35153231 5.55123384 3.70626545 5.09069512 2.0625 4.625 C1.14597656 4.36976562 0.22945313 4.11453125 -0.71484375 3.8515625 C-3 3 -3 3 -4 1 C-2.68 1.33 -1.36 1.66 0 2 C0 1.34 0 0.68 0 0 Z " fill="#B0B0B0" transform="translate(354,66)"/>
<path d="M0 0 C0.89332031 0.47566406 1.78664062 0.95132812 2.70703125 1.44140625 C3.60808594 1.91449219 4.50914062 2.38757813 5.4375 2.875 C6.12457031 3.24753906 6.81164062 3.62007813 7.51953125 4.00390625 C6.52953125 4.66390625 5.53953125 5.32390625 4.51953125 6.00390625 C0.02192694 5.04696916 -2.48596553 3.45910228 -5.48046875 0.00390625 C-2.48046875 -0.99609375 -2.48046875 -0.99609375 0 0 Z " fill="#ABABAB" transform="translate(126.48046875,418.99609375)"/>
<path d="M0 0 C7.71428571 4 7.71428571 4 9 8 C5.08788267 6.84414715 2.1254959 5.64465038 -1 3 C-0.67 2.01 -0.34 1.02 0 0 Z " fill="#A1A1A1" transform="translate(115,412)"/>
<path d="M0 0 C3.3 1.98 6.6 3.96 10 6 C8.02 6.99 8.02 6.99 6 8 C3 6.25 3 6.25 0 4 C0 2.68 0 1.36 0 0 Z " fill="#AAAAAA" transform="translate(387,83)"/>
<path d="M0 0 C0.33 0 0.66 0 1 0 C0.66944259 6.94170563 0.24571282 12.79081025 -3 19 C-4.67641098 14.90913548 -3.2409319 11.28488982 -2.0625 7.25 C-1.86720703 6.55261719 -1.67191406 5.85523438 -1.47070312 5.13671875 C-0.9891754 3.42201027 -0.49574843 1.71065123 0 0 Z " fill="#9AC4A5" transform="translate(57,202)"/>
<path d="M0 0 C1 2 1 2 0.00390625 5.4765625 C-0.46900047 6.86197936 -0.94981644 8.24471547 -1.4375 9.625 C-1.68048828 10.33140625 -1.92347656 11.0378125 -2.17382812 11.765625 C-2.77587205 13.51273287 -3.38708017 15.25667786 -4 17 C-6 14 -6 14 -5.625 11.3125 C-5.41875 10.549375 -5.2125 9.78625 -5 9 C-4.34 9 -3.68 9 -3 9 C-2.87625 8.071875 -2.7525 7.14375 -2.625 6.1875 C-2 3 -2 3 0 0 Z " fill="#93BF9E" transform="translate(121,182)"/>
<path d="M0 0 C7.42857143 -0.28571429 7.42857143 -0.28571429 11 2 C11 2.66 11 3.32 11 4 C3.49230769 3.38461538 3.49230769 3.38461538 1 1.4375 C0.67 0.963125 0.34 0.48875 0 0 Z " fill="#9F9F9F" transform="translate(174,444)"/>
<path d="M0 0 C0.33 0.99 0.66 1.98 1 3 C-0.875 6.0625 -0.875 6.0625 -3 9 C-3.33 9.66 -3.66 10.32 -4 11 C-4.66 11 -5.32 11 -6 11 C-6 9.68 -6 8.36 -6 7 C-5.34 7 -4.68 7 -4 7 C-3.71125 6.21625 -3.4225 5.4325 -3.125 4.625 C-2 2 -2 2 0 0 Z " fill="#97C0A0" transform="translate(283,416)"/>
<path d="M0 0 C1.29608947 0.93137592 2.58671632 1.8703566 3.875 2.8125 C4.59429687 3.33457031 5.31359375 3.85664063 6.0546875 4.39453125 C8 6 8 6 10 9 C8.35 9 6.7 9 5 9 C5 8.01 5 7.02 5 6 C4.360625 5.7525 3.72125 5.505 3.0625 5.25 C1 4 1 4 0.37109375 1.921875 C0.24863281 1.28765625 0.12617188 0.6534375 0 0 Z " fill="#94C0A0" transform="translate(207,395)"/>
<path d="M0 0 C1.98 0 3.96 0 6 0 C5.34 0.66 4.68 1.32 4 2 C4.33 2.99 4.66 3.98 5 5 C5.66 5.33 6.32 5.66 7 6 C6.67 6.99 6.34 7.98 6 9 C4.99105628 8.07213211 3.99309093 7.13231567 3 6.1875 C2.1646875 5.40439453 2.1646875 5.40439453 1.3125 4.60546875 C0 3 0 3 0 0 Z " fill="#94BD9D" transform="translate(266,303)"/>
<path d="M0 0 C1.4370809 -0.05422947 2.87475462 -0.09289723 4.3125 -0.125 C5.11300781 -0.14820313 5.91351563 -0.17140625 6.73828125 -0.1953125 C9 0 9 0 12 2 C8.32589215 3.17571451 4.83070817 3.07366746 1 3 C0.67 2.01 0.34 1.02 0 0 Z " fill="#95C19F" transform="translate(228,185)"/>
<path d="M0 0 C0.33 0.99 0.66 1.98 1 3 C-0.423125 3.8971875 -0.423125 3.8971875 -1.875 4.8125 C-5.13964197 6.81562526 -5.13964197 6.81562526 -7 10 C-7.99 9.67 -8.98 9.34 -10 9 C-8.71142987 7.68445979 -7.41904109 6.37265903 -6.125 5.0625 C-5.04605469 3.96615234 -5.04605469 3.96615234 -3.9453125 2.84765625 C-2 1 -2 1 0 0 Z " fill="#95C0A1" transform="translate(294,406)"/>
<path d="M0 0 C2.6875 1.9375 2.6875 1.9375 5 4 C4.34 5.32 3.68 6.64 3 8 C3 7.34 3 6.68 3 6 C1.68 5.34 0.36 4.68 -1 4 C-1 3.34 -1 2.68 -1 2 C-1.66 1.67 -2.32 1.34 -3 1 C-2.01 0.67 -1.02 0.34 0 0 Z " fill="#ADADAF" transform="translate(78,378)"/>
<path d="M0 0 C1.61725534 3.00950123 2.67582623 5.97103608 3.625 9.25 C3.88539063 10.14203125 4.14578125 11.0340625 4.4140625 11.953125 C4.60742188 12.62859375 4.80078125 13.3040625 5 14 C4.01 13.67 3.02 13.34 2 13 C0.01165038 8.60470084 -0.19118486 4.77962147 0 0 Z " fill="#97C3A2" transform="translate(457,194)"/>
<path d="M0 0 C-2 2 -2 2 -3.875 2.875 C-6.40156407 4.21259274 -8.05926336 5.92063932 -10 8 C-10.66 7.67 -11.32 7.34 -12 7 C-12 6.34 -12 5.68 -12 5 C-10.68 4.67 -9.36 4.34 -8 4 C-8 3.34 -8 2.68 -8 2 C-3.61016949 -1.20338983 -3.61016949 -1.20338983 0 0 Z " fill="#96BFA0" transform="translate(109,127)"/>
<path d="M0 0 C0.33 0.66 0.66 1.32 1 2 C0.67 2.99 0.34 3.98 0 5 C2.97 5.33 5.94 5.66 9 6 C9 6.33 9 6.66 9 7 C5.04 7 1.08 7 -3 7 C-2 2 -2 2 0 0 Z " fill="#98C2A1" transform="translate(271,377)"/>
<path d="M0 0 C1 3 1 3 -0.1875 5.4375 C-1.93979049 7.91487622 -3.78315483 9.9360407 -6 12 C-6.66 11.67 -7.32 11.34 -8 11 C-7.38511719 10.31164062 -7.38511719 10.31164062 -6.7578125 9.609375 C-6.21898437 8.99578125 -5.68015625 8.3821875 -5.125 7.75 C-4.59132813 7.14671875 -4.05765625 6.5434375 -3.5078125 5.921875 C-2.0202513 4.02581254 -0.99677564 2.18709995 0 0 Z " fill="#90BD9B" transform="translate(356,344)"/>
<path d="M0 0 C2.78637633 4.1795645 1.79562512 6.14668677 1 11 C-0.9451 8.08235 -1.45276317 6.37462715 -2 3 C-1.34 3 -0.68 3 0 3 C0 2.01 0 1.02 0 0 Z " fill="#AFAFAF" transform="translate(40,310)"/>
<path d="M0 0 C0 0.66 0 1.32 0 2 C-3.67410785 3.17571451 -7.16929183 3.07366746 -11 3 C-8.21756596 -1.17365106 -4.53441502 -0.22300402 0 0 Z " fill="#9C9C9C" transform="translate(202,53)"/>
<path d="M0 0 C2.31 0.33 4.62 0.66 7 1 C7 2.32 7 3.64 7 5 C2.545 4.01 2.545 4.01 -2 3 C-1.34 2.67 -0.68 2.34 0 2 C0 1.34 0 0.68 0 0 Z " fill="#ACACAC" transform="translate(308,51)"/>
<path d="M0 0 C1.98 0 3.96 0 6 0 C2.18765077 3.3502463 -1.33285711 5.16974789 -6 7 C-5.67 5.68 -5.34 4.36 -5 3 C-3.68 3 -2.36 3 -1 3 C-0.67 2.01 -0.34 1.02 0 0 Z " fill="#8FBC9A" transform="translate(377,402)"/>
<path d="M0 0 C2.96404505 2.80804268 5.44499019 5.18315774 7 9 C6.01 9 5.02 9 4 9 C3.67 8.34 3.34 7.68 3 7 C2.34 7 1.68 7 1 7 C0.67 4.69 0.34 2.38 0 0 Z " fill="#95C1A0" transform="translate(163,351)"/>
<path d="M0 0 C1 2 1 2 0.375 4 C-1.39265071 6.57112831 -3.07589059 7.07659703 -6 8 C-4.55746343 4.63408134 -2.66735273 2.48952921 0 0 Z " fill="#96C2A2" transform="translate(92,138)"/>
<path d="M0 0 C0.33 0 0.66 0 1 0 C0.88648483 1.81325551 0.75887039 3.62563357 0.625 5.4375 C0.55539062 6.44683594 0.48578125 7.45617187 0.4140625 8.49609375 C0.27742188 9.32238281 0.14078125 10.14867187 0 11 C-0.99 11.495 -0.99 11.495 -2 12 C-2.28571429 3.42857143 -2.28571429 3.42857143 0 0 Z " fill="#99C1A2" transform="translate(389,128)"/>
<path d="M0 0 C6.75 -0.125 6.75 -0.125 9 1 C9 1.66 9 2.32 9 3 C2.25 3.125 2.25 3.125 0 2 C0 1.34 0 0.68 0 0 Z " fill="#9D9D9D" transform="translate(291,49)"/>
<path d="M0 0 C1.09570312 0.00902344 2.19140625 0.01804687 3.3203125 0.02734375 C4.16335937 0.03894531 5.00640625 0.05054688 5.875 0.0625 C5.875 0.3925 5.875 0.7225 5.875 1.0625 C-1.055 2.5475 -1.055 2.5475 -8.125 4.0625 C-8.125 3.0725 -8.125 2.0825 -8.125 1.0625 C-5.36047967 -0.31976016 -3.0788637 -0.03275387 0 0 Z " fill="#DBF1DF" transform="translate(224.125,307.9375)"/>
<path d="M0 0 C0.71484375 1.734375 0.71484375 1.734375 1 4 C-0.43359375 6.140625 -0.43359375 6.140625 -2.4375 8.25 C-3.09621094 8.95640625 -3.75492188 9.6628125 -4.43359375 10.390625 C-5.20896484 11.18726563 -5.20896484 11.18726563 -6 12 C-6.66 11.67 -7.32 11.34 -8 11 C-7.50628906 10.45730469 -7.01257813 9.91460937 -6.50390625 9.35546875 C-5.86324219 8.64003906 -5.22257813 7.92460937 -4.5625 7.1875 C-3.92441406 6.47980469 -3.28632813 5.77210938 -2.62890625 5.04296875 C-0.80913988 3.00103848 -0.80913988 3.00103848 0 0 Z " fill="#E5F7E8" transform="translate(240,190)"/>
<path d="M0 0 C0.99 0.99 1.98 1.98 3 3 C1.35 4.32 -0.3 5.64 -2 7 C-2 6.34 -2 5.68 -2 5 C-2.66 4.67 -3.32 4.34 -4 4 C-2.68 2.68 -1.36 1.36 0 0 Z " fill="#B1B1B1" transform="translate(85,115)"/>
<path d="M0 0 C0 0.66 0 1.32 0 2 C0.66 2.33 1.32 2.66 2 3 C-4.75 2.25 -4.75 2.25 -7 0 C-4.3333581 -1.33332095 -2.83319697 -0.67102033 0 0 Z M0 -1 C3 0 3 0 3 0 Z " fill="#95C2A0" transform="translate(175,420)"/>
<path d="M0 0 C3 4 3 4 2.6875 7.75 C2.460625 8.8225 2.23375 9.895 2 11 C1.01 10.67 0.02 10.34 -1 10 C-0.67 6.7 -0.34 3.4 0 0 Z " fill="#B7B7B7" transform="translate(478,283)"/>
<path d="M0 0 C1 2 1 2 0.3125 5.5 C-1 9 -1 9 -3.125 10.4375 C-3.74375 10.623125 -4.3625 10.80875 -5 11 C-3.55049545 7.2089881 -1.84827434 3.6125362 0 0 Z " fill="#97C0A0" transform="translate(74,162)"/>
<path d="M0 0 C1.875 0.1875 1.875 0.1875 4 1 C5.25 3.5625 5.25 3.5625 6 6 C3 6 3 6 1.3125 4.6875 C0 3 0 3 0 0 Z " fill="#9C9C9C" transform="translate(432,123)"/>
<path d="M0 0 C0.66 0.33 1.32 0.66 2 1 C2 1.99 2 2.98 2 4 C-1.33333333 7 -1.33333333 7 -4 7 C-2.92598892 4.08482708 -2.22189824 2.22189824 0 0 Z " fill="#A3A3A3" transform="translate(101,100)"/>
<path d="M0 0 C0.66 0.33 1.32 0.66 2 1 C1.01 1.66 0.02 2.32 -1 3 C-0.67 3.66 -0.34 4.32 0 5 C-1.65 5.66 -3.3 6.32 -5 7 C-5 6.34 -5 5.68 -5 5 C-5.66 4.67 -6.32 4.34 -7 4 C-1.7265625 0.77734375 -1.7265625 0.77734375 0 0 Z " fill="#AEAEAE" transform="translate(373,426)"/>
<path d="M0 0 C2.62187494 1.04874998 3.79371361 1.64931313 5.25 4.125 C5.4975 4.74375 5.745 5.3625 6 6 C3.13275314 5.42655063 2.1385485 5.1385485 0 3 C0 2.01 0 1.02 0 0 Z " fill="#9C9C9C" transform="translate(82,384)"/>
<path d="M0 0 C-0.66 1.32 -1.32 2.64 -2 4 C-2.66 4 -3.32 4 -4 4 C-4.33 4.99 -4.66 5.98 -5 7 C-5.66 6.67 -6.32 6.34 -7 6 C-5.61469317 1.84407951 -4.52657396 0 0 0 Z " fill="#8FBE99" transform="translate(248,313)"/>
<path d="M0 0 C3 1 3 1 4 3 C4.039992 4.99960012 4.04346799 7.00047242 4 9 C1.47740939 7.02579865 1.0070192 6.03254358 0.3125 2.8125 C0.209375 1.884375 0.10625 0.95625 0 0 Z " fill="#87B992" transform="translate(356,293)"/>
<path d="M0 0 C2.8992226 0.46761655 3.86675182 0.86675182 6 3 C3.50907189 4.24546405 2.58919267 3.7767578 0 3 C-0.33 3.66 -0.66 4.32 -1 5 C-1 1 -1 1 0 0 Z " fill="#95BD9D" transform="translate(304,282)"/>
<path d="M0 0 C3.37503669 1.1858237 5.64722731 2.27573689 8 5 C7.67 5.99 7.34 6.98 7 8 C5.83035398 6.8572081 4.66435444 5.71068285 3.5 4.5625 C2.8503125 3.92441406 2.200625 3.28632813 1.53125 2.62890625 C0 1 0 1 0 0 Z " fill="#8ABD98" transform="translate(304,223)"/>
<path d="M0 0 C3 2 3 2 3.51171875 3.9453125 C3.67447917 5.96354167 3.83723958 7.98177083 4 10 C1.36 9.67 -1.28 9.34 -4 9 C-4 8.67 -4 8.34 -4 8 C-2.02 8 -0.04 8 2 8 C1.34 5.36 0.68 2.72 0 0 Z " fill="#BDDDC5" transform="translate(401,202)"/>
<path d="M0 0 C0.33 0 0.66 0 1 0 C1.66 2.97 2.32 5.94 3 9 C1.68 9 0.36 9 -1 9 C-1.33 7.35 -1.66 5.7 -2 4 C-1.34 4 -0.68 4 0 4 C0 2.68 0 1.36 0 0 Z " fill="#B3B3B3" transform="translate(474,191)"/>
<path d="M0 0 C0.99 0 1.98 0 3 0 C2.34 1.98 1.68 3.96 1 6 C0.01 6 -0.98 6 -2 6 C-1.49396008 3.83125748 -1.00016187 2.00032373 0 0 Z " fill="#A0A0A0" transform="translate(58,149)"/>
<path d="M0 0 C1.485 0.99 1.485 0.99 3 2 C3 2.66 3 3.32 3 4 C3.99 4.33 4.98 4.66 6 5 C4.02 5.99 4.02 5.99 2 7 C0.4375 5.1875 0.4375 5.1875 -1 3 C-0.67 2.01 -0.34 1.02 0 0 Z " fill="#ACACAC" transform="translate(429,118)"/>
<path d="M0 0 C-0.33 0.33 -0.66 0.66 -1 1 C-0.34 1.66 0.32 2.32 1 3 C-1.31 3.33 -3.62 3.66 -6 4 C-6 3.34 -6 2.68 -6 2 C-6.99 1.67 -7.98 1.34 -9 1 C-2.25 -1.125 -2.25 -1.125 0 0 Z " fill="#BABABA" transform="translate(194,54)"/>
<path d="M0 0 C4.16138263 -0.08159574 7.9472484 0.01751476 12 1 C8.91190305 2.76462683 7.76687864 3 4 3 C4 2.34 4 1.68 4 1 C2.68 0.67 1.36 0.34 0 0 Z " fill="#B0B0B0" transform="translate(304,451)"/>
<path d="M0 0 C-0.33 0.99 -0.66 1.98 -1 3 C-2.98 3.33 -4.96 3.66 -7 4 C-6.67 3.01 -6.34 2.02 -6 1 C-4 0 -4 0 0 0 Z " fill="#9B9B9B" transform="translate(368,431)"/>
<path d="M0 0 C1.32 1.32 2.64 2.64 4 4 C3.01 5.485 3.01 5.485 2 7 C1.01 7 0.02 7 -1 7 C-0.67 4.69 -0.34 2.38 0 0 Z " fill="#87BC93" transform="translate(203,392)"/>
<path d="M0 0 C1.32 0 2.64 0 4 0 C4.28875 0.61875 4.5775 1.2375 4.875 1.875 C5.93720042 4.13325765 5.93720042 4.13325765 8 6 C5 6 5 6 2.3125 3.5625 C0 1 0 1 0 0 Z " fill="#95BFA0" transform="translate(215,368)"/>
<path d="M0 0 C0.99 0.33 1.98 0.66 3 1 C3.33 2.98 3.66 4.96 4 7 C3.34 7 2.68 7 2 7 C0 4 0 4 0 0 Z " fill="#9F9F9F" transform="translate(58,352)"/>
<path d="M0 0 C0.66 0.66 1.32 1.32 2 2 C0.02 4.97 0.02 4.97 -2 8 C-2.66 7.67 -3.32 7.34 -4 7 C-2.92598892 4.08482708 -2.22189824 2.22189824 0 0 Z " fill="#8EBC9A" transform="translate(237,323)"/>
<path d="M0 0 C1.485 0.99 1.485 0.99 3 2 C3.1875 5.125 3.1875 5.125 3 8 C2.34 8 1.68 8 1 8 C-0.35439668 5.29120665 -0.06501451 2.99066732 0 0 Z " fill="#999999" transform="translate(471,187)"/>
<path d="M0 0 C0.33 0.99 0.66 1.98 1 3 C-0.8125 5.6875 -0.8125 5.6875 -3 8 C-3.66 8 -4.32 8 -5 8 C-3.375 2.25 -3.375 2.25 0 0 Z " fill="#9C9C9C" transform="translate(75,128)"/>
<path d="M0 0 C0 0.66 0 1.32 0 2 C-5.17578125 5.22265625 -5.17578125 5.22265625 -7 6 C-7.99 5.67 -8.98 5.34 -10 5 C-9.236875 4.54625 -8.47375 4.0925 -7.6875 3.625 C-1.69230769 0 -1.69230769 0 0 0 Z " fill="#9A9A9A" transform="translate(137,78)"/>
<path d="M0 0 C0.66 0.33 1.32 0.66 2 1 C0.25 4.875 0.25 4.875 -2 6 C-2 5.34 -2 4.68 -2 4 C-2.66 3.67 -3.32 3.34 -4 3 C-2.68 2.01 -1.36 1.02 0 0 Z " fill="#ACACAC" transform="translate(404,406)"/>
<path d="M0 0 C0.99 0.33 1.98 0.66 3 1 C0.03 3.475 0.03 3.475 -3 6 C-3.33 5.01 -3.66 4.02 -4 3 C-3.34 3 -2.68 3 -2 3 C-2 2.34 -2 1.68 -2 1 C-1.34 0.67 -0.68 0.34 0 0 Z " fill="#8EBA98" transform="translate(412,376)"/>
<path d="M0 0 C0.33 1.32 0.66 2.64 1 4 C-0.65 5.32 -2.3 6.64 -4 8 C-4.66 7.67 -5.32 7.34 -6 7 C-4.02 4.69 -2.04 2.38 0 0 Z " fill="#E4F5E7" transform="translate(311,364)"/>
<path d="M0 0 C0 0.66 0 1.32 0 2 C-2.64 2 -5.28 2 -8 2 C-6.14210462 -1.71579076 -3.44525918 -1.06921837 0 0 Z " fill="#9B9B9B" transform="translate(327,448)"/>
<path d="M0 0 C-2.35277269 2.72426311 -4.62496331 3.8141763 -8 5 C-8 3 -8 3 -6.8125 1.375 C-4.44439338 -0.42149467 -2.90102749 -0.23521845 0 0 Z " fill="#8DBC9A" transform="translate(302,373)"/>
<path d="M0 0 C2.2477975 2.05233685 3.0022242 3.00667261 4 6 C3.01 6 2.02 6 1 6 C0.34 4.35 -0.32 2.7 -1 1 C-0.67 0.67 -0.34 0.34 0 0 Z " fill="#8DBD9A" transform="translate(83,351)"/>
<path d="M0 0 C0.33 0 0.66 0 1 0 C1 1.98 1 3.96 1 6 C-0.98 6.99 -0.98 6.99 -3 8 C-1.125 1.125 -1.125 1.125 0 0 Z " fill="#9E9E9E" transform="translate(472,313)"/>
<path d="M0 0 C0.33 0 0.66 0 1 0 C1.36923077 5.53846154 1.36923077 5.53846154 -0.5 7.875 C-1.2425 8.431875 -1.2425 8.431875 -2 9 C-1.125 1.125 -1.125 1.125 0 0 Z " fill="#92BD9C" transform="translate(164,279)"/>
<path d="M0 0 C1.32 0 2.64 0 4 0 C5.0625 1.8125 5.0625 1.8125 6 4 C5.67 4.99 5.34 5.98 5 7 C5 6.34 5 5.68 5 5 C4.34 5 3.68 5 3 5 C1.375 2.5 1.375 2.5 0 0 Z " fill="#8EBB98" transform="translate(330,252)"/>
<path d="M0 0 C0.66 0.33 1.32 0.66 2 1 C0.35 2.65 -1.3 4.3 -3 6 C-3 4.68 -3 3.36 -3 2 C-2.01 1.34 -1.02 0.68 0 0 Z " fill="#8DBB95" transform="translate(192,240)"/>
<path d="M0 0 C0.33 1.32 0.66 2.64 1 4 C-0.9375 6.25 -0.9375 6.25 -3 8 C-3.66 7.67 -4.32 7.34 -5 7 C-3.35 4.69 -1.7 2.38 0 0 Z " fill="#97C1A0" transform="translate(85,146)"/>
<path d="M0 0 C1.65 0 3.3 0 5 0 C5.33 0.66 5.66 1.32 6 2 C3.69 2.33 1.38 2.66 -1 3 C-0.67 2.01 -0.34 1.02 0 0 Z " fill="#9F9F9F" transform="translate(168,61)"/>
</svg>
